<?xml version="1.0" encoding="utf-8" standalone="no"?>
<!DOCTYPE svg PUBLIC "-//W3C//DTD SVG 1.1//EN" "http://www.w3.org/Graphics/SVG/1.1/DTD/svg11.dtd">
<svg xmlns="http://www.w3.org/2000/svg" xmlns:xl="http://www.w3.org/1999/xlink" version="1.1" viewBox="3 90 729 396" width="729pt" height="33pc" xmlns:dc="http://purl.org/dc/elements/1.1/"><metadata> Produced by OmniGraffle 6.0.3 <dc:date>2016-02-27 18:30Z</dc:date></metadata><defs/><g stroke="none" stroke-opacity="1" stroke-dasharray="none" fill="none" fill-opacity="1"><title>virtual-dom</title><g><title>Layer 2</title><circle cx="177.87401" cy="159.44882" r="29.055164" fill="#36d2ff"/><circle cx="243.07086" cy="235.98425" r="29.055164" fill="yellow"/><circle cx="200.55118" cy="342.28346" r="29.055164" fill="#36d2ff"/><circle cx="294.09449" cy="342.28346" r="29.055164" fill="#36d2ff"/><line x1="196.71623" y1="181.56794" x2="224.22865" y2="213.86512" stroke="white" stroke-linecap="round" stroke-linejoin="round" stroke-width="3"/><line x1="232.2773" y1="262.96817" x2="211.34475" y2="315.29955" stroke="white" stroke-linecap="round" stroke-linejoin="round" stroke-width="3"/><line x1="255.64734" y1="262.18524" x2="281.51801" y2="316.08247" stroke="white" stroke-linecap="round" stroke-linejoin="round" stroke-width="3"/><circle cx="114.09449" cy="235.98425" r="29.055164" fill="#36d2ff"/><line x1="159.27222" y1="181.77098" x2="132.696285" y2="213.66209" stroke="white" stroke-linecap="round" stroke-linejoin="round" stroke-width="3"/><circle cx="90" cy="339.44882" r="29.055164" fill="#36d2ff"/><circle cx="41.811023" cy="444.3307" r="29.055164" fill="#36d2ff"/><circle cx="141.02362" cy="444.3307" r="29.055164" fill="#36d2ff"/><line x1="77.86619" y1="365.8577" x2="53.944833" y2="417.92183" stroke="white" stroke-linecap="round" stroke-linejoin="round" stroke-width="3"/><line x1="102.71408" y1="365.5833" x2="128.30954" y2="418.19621" stroke="white" stroke-linecap="round" stroke-linejoin="round" stroke-width="3"/><line x1="107.503665" y1="264.28602" x2="96.59082" y2="311.14705" stroke="white" stroke-linecap="round" stroke-linejoin="round" stroke-width="3"/><circle cx="552.04724" cy="162.28346" r="29.055164" fill="#36d2ff" fill-opacity=".5"/><circle cx="617.2441" cy="238.8189" r="29.055164" fill="#36d2ff" fill-opacity=".5"/><circle cx="574.7244" cy="345.1181" r="29.055164" fill="#36d2ff"/><circle cx="693.77952" cy="352.20472" r="29.055164" fill="#36d2ff"/><line x1="570.88946" y1="184.40259" x2="598.40187" y2="216.69977" stroke="white" stroke-opacity=".5" stroke-linecap="round" stroke-linejoin="round" stroke-width="3"/><line x1="606.45053" y1="265.80281" x2="585.51797" y2="318.1342" stroke="white" stroke-opacity=".5" stroke-linecap="round" stroke-linejoin="round" stroke-width="3"/><line x1="633.50266" y1="262.90566" x2="677.52096" y2="328.11796" stroke="white" stroke-opacity=".5" stroke-linecap="round" stroke-linejoin="round" stroke-width="3"/><circle cx="488.2677" cy="238.8189" r="29.055164" fill="#36d2ff"/><line x1="533.44544" y1="184.60562" x2="506.8695" y2="216.49674" stroke="white" stroke-opacity=".5" stroke-linecap="round" stroke-linejoin="round" stroke-width="3"/><circle cx="464.17323" cy="342.28346" r="29.055164" fill="#36d2ff"/><circle cx="415.98425" cy="447.16535" r="29.055164" fill="#36d2ff"/><circle cx="515.19685" cy="447.16535" r="29.055164" fill="#36d2ff"/><line x1="452.03942" y1="368.69234" x2="428.11806" y2="420.75647" stroke="white" stroke-linecap="round" stroke-linejoin="round" stroke-width="3"/><line x1="476.8873" y1="368.41796" x2="502.48277" y2="421.03086" stroke="white" stroke-linecap="round" stroke-linejoin="round" stroke-width="3"/><line x1="481.6769" y1="267.12066" x2="470.76405" y2="313.9817" stroke="white" stroke-linecap="round" stroke-linejoin="round" stroke-width="3"/><circle cx="626.4567" cy="128.267716" r="29.055164" fill="lime"/><circle cx="691.65354" cy="204.80315" r="29.055164" fill="yellow"/><line x1="645.2989" y1="150.38684" x2="672.81132" y2="182.68402" stroke="white" stroke-linecap="round" stroke-linejoin="round" stroke-width="3"/><line x1="673.05174" y1="227.1253" x2="593.3262" y2="322.79595" stroke="white" stroke-linecap="round" stroke-linejoin="round" stroke-width="3"/><line x1="692.07256" y1="233.85528" x2="693.3605" y2="323.1526" stroke="white" stroke-linecap="round" stroke-linejoin="round" stroke-width="3"/><line x1="603.7665" y1="146.41988" x2="510.9579" y2="220.66674" stroke="white" stroke-linecap="round" stroke-linejoin="round" stroke-width="3"/></g></g></svg>
